<?xml version="1.0" encoding="UTF-8" standalone="no"?>
<!-- Created with Inkscape (http://www.inkscape.org/) -->

<svg
   width="128"
   height="128"
   viewBox="0 0 33.866666 33.866666"
   version="1.1"
   id="svg1"
   inkscape:version="1.4.2 (f4327f4, 2025-05-13)"
   sodipodi:docname="icon.svg"
   inkscape:export-filename="16.png"
   inkscape:export-xdpi="12"
   inkscape:export-ydpi="12"
   xmlns:inkscape="http://www.inkscape.org/namespaces/inkscape"
   xmlns:sodipodi="http://sodipodi.sourceforge.net/DTD/sodipodi-0.dtd"
   xmlns:xlink="http://www.w3.org/1999/xlink"
   xmlns="http://www.w3.org/2000/svg"
   xmlns:svg="http://www.w3.org/2000/svg">
  <sodipodi:namedview
     id="namedview1"
     pagecolor="#505050"
     bordercolor="#eeeeee"
     borderopacity="1"
     inkscape:showpageshadow="0"
     inkscape:pageopacity="0"
     inkscape:pagecheckerboard="0"
     inkscape:deskcolor="#d1d1d1"
     inkscape:document-units="px"
     inkscape:zoom="0.5165411"
     inkscape:cx="155.84433"
     inkscape:cy="-46.462905"
     inkscape:current-layer="layer1" />
  <defs
     id="defs1">
    <linearGradient
       inkscape:collect="always"
       xlink:href="#linearGradient6"
       id="linearGradient7"
       gradientUnits="userSpaceOnUse"
       gradientTransform="translate(-17.727084,-80.433319)"
       x1="0"
       y1="67.73333"
       x2="135.46666"
       y2="67.73333" />
    <linearGradient
       id="linearGradient6"
       inkscape:collect="always">
      <stop
         style="stop-color:#929292;stop-opacity:1;"
         offset="0"
         id="stop5" />
      <stop
         style="stop-color:#000000;stop-opacity:1;"
         offset="1"
         id="stop6" />
    </linearGradient>
  </defs>
  <g
     inkscape:label="hieroglyph"
     inkscape:groupmode="layer"
     id="layer1"
     style="display:inline">
    <path
       d="m 8.9717799,2.3571961 q 0.384849,-0.3367424 0.914016,-0.3367424 0.4810601,0 0.8178031,0.4329546 0.288636,0.3848485 0.288636,0.9140151 0,0.4810607 -0.432955,0.721591 -0.432954,0.1924242 -0.9140151,0.1924242 -0.432954,0 -0.721591,-0.2886364 -0.336742,-0.3367424 -0.336742,-0.817803 0,-0.4810606 0.384848,-0.8178031 z M 29.753598,28.43068 q 1.683712,2.45341 1.972349,3.078788 0.336742,0.577273 0.336742,1.298864 -0.09621,0.577273 -0.529167,0.817803 -0.432954,0.24053 -0.769697,0.24053 -1.683712,-0.09621 -2.886363,-1.106439 -1.250758,-1.010227 -2.020455,-1.635606 -0.721591,-0.625379 -2.212879,-2.405303 -1.491288,-1.828031 -2.453408,-3.848485 -0.04811,0.288636 -0.24053,0.865909 -0.144318,0.529167 -0.24053,0.962121 l -0.144319,0.481061 q -0.24053,1.154545 -1.82803,1.154545 -1.010227,0 -2.068561,-0.721591 l -0.24053,4.233334 2.068561,0.336742 q 0.384848,0 1.346969,-0.144318 0.962122,-0.192424 1.154546,-0.192424 1.20265,0 1.395074,0.577273 0,0.24053 0.192425,1.443181 h -0.817803 q -0.144317,-0.04811 -0.288635,-0.144318 -0.144319,-0.144318 -0.288637,-0.192424 -0.144318,-0.04811 -0.288636,-0.04811 -0.240531,0 -0.384849,0.04811 -0.144318,0.04811 -0.336742,0.192424 -0.192424,0.09621 -0.336743,0.144318 H 4.4979166 Q 4.3535984,33.818559 4.1611743,33.674241 3.9206439,33.529923 3.7282197,33.481817 q -0.1924243,-0.09621 -0.3848485,-0.09621 -0.2405303,0 -0.5291667,0.24053 -0.3367424,0.192424 -0.5772727,0.24053 -1.29886365,0 -1.29886365,-0.72159 0,-0.529167 0.72159085,-0.86591 0.7215909,-0.384848 1.7799243,-0.384848 0.2405303,0 0.9140151,0.09621 0.6253788,0.09621 1.2026515,0.192424 l 0.5772728,0.09621 q 0.1924242,0 0.5291662,0.04811 0.288637,0 0.432955,0 0.865909,0 2.020455,-0.288637 1.4431811,-5.339773 1.4431811,-5.484091 0,-2.260985 -0.192424,-10.054167 L 8.1058709,11.882196 Q 7.3842809,10.342804 7.2399619,8.0337117 7.0956439,5.6765143 6.9994319,5.1473476 6.5183709,2.9344689 5.9892045,2.9344689 q -0.096212,0 -0.4329546,0.048106 -0.3367424,0.048106 -0.5772727,0.048106 -0.2405303,0 -0.5772728,0.048106 -0.3367423,0 -0.6734847,0.048106 -0.3367424,0 -0.5772728,0 -0.2886363,0 -0.4329545,0.048106 H 2.4774621 q -0.5772728,0 -0.5772728,-0.5772728 0,-0.3848485 0.3367425,-0.5291666 Q 4.8827651,0.57727195 5.8929924,0.28863565 6.8551139,-7.5e-7 9.6933709,-7.5e-7 h 3.9928031 q 0.240531,0 0.432955,0.1924242 0.192424,0.1443182 0.192424,0.3848485 v 0.048106 q 0.04811,0.48106055 0.04811,1.20265135 0,0.721591 0.09621,1.2988637 0.09621,0.5772728 0.336743,1.1064395 0.529167,1.1545453 1.202651,2.1647726 0.625379,1.0102276 1.010228,1.5393936 0.432954,0.529167 1.5875,1.972349 0.721591,0.9140153 2.453409,2.4053033 1.731817,1.491288 2.597726,2.838258 6.10947,9.092044 9.188258,14.479923 0.09621,0.192424 0.09621,0.288636 0,0.240531 -0.192424,0.432955 -0.192424,0.144318 -0.432955,0.144318 -0.192424,0 -0.432954,-0.144318 -0.769697,-0.769697 -2.116667,-1.924243 z m -8.178029,-5.484091 q 1.250756,2.69394 2.693938,4.666288 1.443182,1.924243 4.329546,4.233334 1.250757,1.010227 1.876136,1.010227 0.144318,0 0.24053,-0.04811 0.144318,-0.09621 0.144318,-0.144318 l 0.04811,-0.04811 q -0.192428,-0.577265 -0.481064,-1.058325 -0.288636,-0.481061 -0.721591,-1.10644 -0.432955,-0.625379 -0.769697,-1.106439 L 27.107765,26.36212 24.991098,24.726514 Q 23.74034,23.764392 21.575569,22.706059 Z M 10.366856,10.823864 q 0,-0.673485 0.432955,-1.0583333 0.384848,-0.384849 1.058333,-0.384849 0.288636,0 0.721591,0.144318 0.432955,0.09621 0.769697,0.09621 1.5875,-0.192425 1.924243,-0.288637 0.336742,-0.144318 0.769696,-0.817804 Q 14.648296,6.7829537 13.686174,4.7624991 13.445644,4.1371204 13.349432,3.6079537 13.25322,3.030681 13.25322,2.260984 13.205114,1.4431809 13.157008,1.2026508 h -0.04811 q -0.673485,0 -1.779925,0 -1.154545,0 -1.6356061,0 -1.972348,0 -2.742045,0.096212 -0.8178032,0.096212 -1.8280305,0.5291667 l -0.048106,0.048106 q 0.7215909,-0.096212 0.9140152,-0.096212 0.5772723,0 0.9621213,0.3848485 0.192424,0.1924243 0.336743,0.3848485 0.144318,0.1443182 0.288636,0.3848485 0.09621,0.1924243 0.192424,0.3367424 0.04811,0.096212 0.144318,0.4329546 0.04811,0.2886364 0.04811,0.3848485 0,0.048106 0.09621,0.4329544 0.09621,0.3367425 0.09621,0.3848485 0.144318,0.7696971 0.240531,2.9344693 0.09621,2.1647743 0.769697,3.5598503 l 2.2128781,4.473862 q 0,0 0.673485,1.34697 0.625379,1.298864 1.924243,3.752273 1.250757,2.453409 2.549621,4.7625 0.721591,0.962121 1.10644,1.202652 0.432954,0.24053 1.106439,0.24053 0.577273,0 0.721591,-0.384848 0.625379,-2.501516 0.865909,-3.704167 -0.24053,-0.432955 -0.721591,-1.443182 -1.34697,-0.769697 -2.453409,-1.731818 -0.481061,-0.432955 -0.865909,-0.817803 -0.432955,-0.432955 -0.865909,-0.86591 -0.432955,-0.48106 -0.721591,-0.769696 -0.288637,-0.336743 -0.673485,-0.86591 -0.432955,-0.577272 -0.625379,-0.817803 -0.192424,-0.24053 -0.625379,-0.865908 -0.48106,-0.673484 -0.625379,-0.865909 -0.144318,-0.192424 -0.673484,-1.010227 -0.529167,-0.817803 -0.673485,-1.010227 -0.432955,-0.625379 -0.432955,-1.202652 z m 1.154546,16.789013 q 0,0.04811 -0.288637,1.10644 -0.288636,1.058333 -0.577272,2.164773 -0.288637,1.106439 -0.336743,1.202651 0.817803,0.240531 1.443182,0.288637 0.09621,0 0.384848,0.04811 0.240531,0 0.336743,0 0.914015,0 1.82803,-0.288637 0.865909,-0.336742 0.962122,-0.336742 l 0.144318,-3.030682 z M 16.813068,9.5731067 q -0.432954,0.4329543 -0.72159,0.6253783 -0.288637,0.192425 -1.010228,0.432955 -0.769697,0.192424 -1.82803,0.192424 -0.336743,0 -0.817803,-0.09621 -0.481061,-0.144318 -0.577273,-0.144318 -0.288636,0 -0.288636,0.24053 0,0.24053 0.192424,0.577273 0.192424,0.288636 0.769697,1.106439 0.577273,0.817803 0.769697,1.10644 0.144318,0.24053 0.625379,0.914015 0.48106,0.673485 0.721591,0.96212 0.192424,0.288636 0.673485,0.865909 0.432954,0.529167 0.817803,0.914015 0.336742,0.336743 0.817803,0.817803 0.48106,0.481061 1.010227,0.962122 1.250758,1.154545 3.752272,2.453409 2.549621,1.298863 3.992803,2.309091 0.817803,0.625379 1.876136,1.395076 1.058334,0.72159 1.779925,1.298863 -1.828031,-3.41553 -6.686743,-10.679546 -0.817803,-1.20265 -2.501514,-2.693938 -1.683712,-1.491288 -2.501515,-2.453409 z m -5.195454,9.4287853 q 0.144318,4.954925 0.144318,7.408334 l 3.752273,1.106439 V 26.36212 q 0,0 -0.09621,-0.192424 -0.144318,-0.240531 -0.336743,-0.625379 -0.24053,-0.384849 -0.529166,-0.865909 -0.288637,-0.529167 -0.625379,-1.154546 -0.336743,-0.673485 -0.721591,-1.34697 -0.384849,-0.721591 -0.817803,-1.539394 -0.432955,-0.865909 -0.769697,-1.635606 z"
       id="text1"
       style="font-size:38.1px;line-height:1.25;font-family:'Eglyf Debug NG';-inkscape-font-specification:'Eglyf Debug NG, Normal';stroke-width:0.334069;fill:#ffffff;fill-opacity:1"
       aria-label="𓄿" />
  </g>
  <g
     inkscape:groupmode="layer"
     id="layer2"
     inkscape:label="transliteration"
     style="display:none">
    <path
       d="m 17.729995,16.3062 q 2.406937,0.203404 4.644372,2.237435 1.89843,1.762828 1.89843,3.830761 0,0.339005 -0.06781,0.71191 -0.915315,5.932595 -7.593719,8.542934 -5.72919,2.237435 -10.2718618,2.237435 -0.7797122,0 -1.525524,-0.06781 v -1.491622 q 0.1017024,0.03389 0.2373037,0.03389 0.9492151,0 4.1019639,-0.813612 3.5934572,-0.881415 4.6443742,-1.457723 3.186649,-1.661127 4.57657,-3.830761 0.745813,-1.152617 0.745813,-2.169634 0,-0.813613 -0.508508,-1.627225 -0.847514,-1.356022 -6.271598,-1.356022 -0.610211,0 -0.949216,-0.169507 -0.339005,-0.169507 -0.67801,-0.169507 0,0 -0.03389,0 -0.03389,0 -0.03389,0 -0.7797132,0 -1.3899222,-0.915314 -0.508508,-1.017015 -0.508508,-1.695027 0,-0.305104 0.135594,-0.576308 0.881415,-1.525526 2.3391382,-1.79673 1.017015,-0.169507 2.135733,-0.169507 0.474607,0 0.949216,0.03389 2.135732,-0.372904 4.237565,-1.491622 3.220551,-1.695027 4.576571,-3.79686 0.745813,-1.1187168 0.745813,-2.1357338 0,-0.8814129 -0.474607,-1.627225 -0.54241,-0.8136139 -2.237435,-0.949216 -1.695027,-0.1355939 -4.034165,-0.1355939 -0.610209,0 -1.152617,-0.2373031 -0.508508,-0.237304 -0.881415,-0.237304 0,0 0.135613,-0.06781 0.169507,-0.06781 0.169507,-0.06781 -0.779712,0 -1.389921,-0.8475141 -0.508509,-0.9492139 -0.508509,-1.5933239 0,-0.271204 0.135595,-0.542409 0.372906,-0.576309 0.949216,-1.11871765 0,-0.0339 0.406806,-0.1695035 l 0.406806,-0.135602 q 1.356022,-0.4746074 2.47474,-0.4746074 7.627619,0 9.898954,2.67814255 1.288221,1.559424 1.288221,3.28835 0,1.254322 -0.678012,2.610342 -1.627224,3.2205508 -6.237696,5.8647918 -2.135735,1.288221 -4.407069,1.864528 z"
       id="text2"
       style="font-style:italic;font-size:38.1px;line-height:1.25;font-family:'Trlit_CG Times';-inkscape-font-specification:'Trlit_CG Times Italic';fill:#ffffff;fill-opacity:1;stroke-width:0.48214"
       aria-label="A" />
  </g>
  <g
     inkscape:groupmode="layer"
     id="layer3"
     inkscape:label="brand"
     style="display:none">
    <g
       id="g2"
       transform="matrix(0.25000001,0,0,0.25000001,13.758334,4.431771)">
      <rect
         style="display:inline;fill:url(#linearGradient7);fill-rule:nonzero;stroke-width:23.7214;stroke-linecap:round;stroke-linejoin:bevel;stroke-dashoffset:13.9374"
         id="rect1-15"
         width="135.46666"
         height="135.46666"
         x="-17.727083"
         y="-80.433327"
         transform="rotate(90)" />
      <g
         id="g1"
         style="fill:#ffffff;fill-opacity:1;stroke-width:1.00012;stroke-dasharray:none"
         transform="translate(-56.25171,-17.727083)">
        <path
           id="path3-5"
           style="fill:#ffffff;fill-opacity:1;stroke:none;stroke-width:1.00012;stroke-linecap:butt;stroke-linejoin:miter;stroke-dasharray:none;stroke-opacity:1"
           d="m 38.399661,37.161384 -1.094939,0.224311 -0.686282,0.250985 -0.60689,0.474724 -0.817864,0.263738 -0.343152,-0.158245 -0.739034,0.343152 -0.593553,0.145491 -0.739034,0.197649 -0.606879,0.171571 -0.46197,0.382567 -0.923369,0.409219 -0.65963,0.237075 -0.5808,0.660214 -0.804539,0.474724 -0.541374,0.528048 -0.620215,0.580217 -0.07885,0.488049 -0.264321,0.395893 -0.250402,0.303736 -0.2904,0.633541 0.06607,0.461398 -0.475296,0.461971 -0.144908,0.448633 -0.277075,0.435309 -0.118818,0.422566 -0.197661,0.474723 v 0.633541 l -0.184907,0.501386 -0.2904,0.620215 -0.17157,0.725709 -0.19766,0.448633 0.171581,0.131583 -0.184907,0.514711 -0.158245,0.277075 0.06607,0.633541 -0.06607,0.540802 -0.132155,0.712383 -0.382556,0.475295 c 0,0 0.01324,0.30312 0,0.355906 -0.01324,0.05272 -0.105549,0.395893 -0.105549,0.395893 l -0.593542,0.198232 -0.633552,-0.158817 -0.686282,-0.19766 -0.77846,-0.224323 -0.751787,-0.118829 -0.817876,0.01335 c 0,0 -0.765808,0.03937 -0.831773,0.03937 -0.06595,0 -1.028861,0.105437 -1.028861,0.105437 h -0.805123 l -0.620204,0.224322 -0.501386,-0.184323 -0.31649,-0.11883 -0.124617,0.11883 -0.205198,0.783676 -0.336186,0.354155 -0.130417,0.541385 0.11183,0.671801 -0.279957,0.988862 0.03769,0.279958 -0.149552,0.186645 -0.261416,1.79108 -0.130416,1.063645 -0.317062,0.578478 0.07482,0.802217 -0.07482,0.466603 0.223739,0.503708 -0.09332,0.559936 -0.242291,1.32505 0.148968,0.578478 -0.148968,0.466614 -0.131,0.634124 0.01851,0.802217 0.01918,0.914665 v 0.727446 l -0.149541,0.616155 -0.242875,0.690354 0.03769,0.727446 0.111831,0.224323 0.09332,0.317062 -0.149552,0.148957 0.186645,0.559937 -0.148969,0.653249 0.298521,0.485155 -0.223739,0.391832 0.01851,0.559937 -0.149541,0.522249 0.07482,0.485155 -0.149552,0.746583 0.224322,0.391832 -0.279968,0.503708 -0.11183,0.428926 0.11183,0.709478 0.22375,0.410384 -0.130427,0.634124 -0.111831,0.877571 0.09332,0.671229 -0.186645,0.485155 0.223739,0.42951 -0.242292,0.503707 0.111831,0.149541 0.205186,0.07425 -0.09332,0.59703 0.03713,0.858435 -0.168105,0.373291 0.168105,0.354739 0.11183,0.373292 -0.09332,0.932633 0.149552,0.89554 0.148969,0.578478 -0.05564,0.504291 0.242281,0.410385 0.205198,0.540801 0.112447,0.429509 0.148969,0.597031 0.09332,0.708894 0.223739,0.690354 0.354739,0.690925 0.09332,0.466031 -0.335614,0.242863 -0.466603,0.148969 -0.765123,0.131 -0.261416,0.317062 -0.148969,0.410385 -0.01851,0.522832 0.298521,0.335614 0.690342,0.336186 0.373291,0.16751 0.783665,0.261428 0.802229,0.07481 1.100726,0.11183 0.765124,0.186646 0.89554,-0.03769 1.194633,0.03769 0.578478,0.01851 0.932645,0.01851 0.653248,0.242292 0.802218,-0.07414 0.896123,0.05563 0.59703,0.149541 1.044509,-0.168093 1.007988,-0.03713 h 1.045092 l 0.671801,0.111831 0.447478,-0.07482 0.429509,0.03713 h 0.671801 l 0.615572,0.149552 0.466614,-0.149552 0.540801,-0.05564 0.541384,0.223739 1.250279,-0.11183 0.335603,-0.07482 -0.03713,-0.335615 0.540801,-0.01851 0.242875,0.205198 0.279958,-0.205198 0.29852,-0.242864 -0.130999,-0.373291 0.149541,-0.447479 0.373291,-0.391832 0.373291,-0.20577 0.428926,-0.372708 0.317062,-0.690937 0.03769,-0.485155 -0.131,-0.260833 -0.01851,-0.839894 -0.148969,-0.391843 -0.429509,-0.261416 v -0.260833 l 0.11183,-0.354739 0.0562,-0.615572 -0.223739,-0.336197 -0.298521,-0.22374 0.01851,-0.578478 -0.07482,-0.448061 -0.05564,-0.503708 -0.186645,-0.354155 -0.112448,-0.485156 -0.205198,-0.336186 -0.223739,-0.373291 0.279969,0.11183 0.130416,-0.485155 0.0562,-0.578478 -0.279969,-0.03713 0.0562,-0.336185 -0.224323,-0.503709 0.07482,-0.466614 0.07482,-0.540801 -0.03769,-0.578478 0.03769,-0.522249 0.05563,-0.522843 -0.03713,-0.24228 0.0562,-0.317646 -0.09332,-0.335614 0.205187,-0.541373 0.223739,-0.783676 0.05563,-0.522249 -0.03713,-0.485167 -0.09332,-0.186634 0.168093,-0.448061 -0.354739,-0.466031 0.336198,-0.354738 0.11183,-0.671801 0.07426,-0.29851 -0.148969,-0.22375 -0.149552,-0.186635 0.298521,-0.391843 0.09332,-0.391833 -0.205199,-0.279968 -0.205186,-0.279957 0.223739,-0.205198 0.299093,-0.149541 0.07414,-0.634124 -0.24228,-0.336198 0.186634,-0.279957 0.242292,-0.186646 -0.07482,-0.428937 -0.130416,-0.149541 0.186646,-0.298509 0.09332,-0.317062 -0.14954,-0.52226 0.242863,-0.466603 -0.0562,-0.541385 v -0.485155 l -0.186063,-0.317062 0.03713,-0.428937 0.223739,-0.131 0.186645,-0.485156 0.205187,-0.279968 -0.205187,-0.148968 0.03769,-0.485156 -0.317645,-0.261415 -0.01851,-0.261417 0.261427,-0.279385 0.03713,-0.298509 -0.11183,-0.242875 0.0562,-0.634696 0.22374,-0.372708 -0.168094,-0.298521 0.205187,-0.07482 0.224323,-0.522832 -0.168094,-0.260833 0.317062,-0.485154 v -0.428939 l -0.242291,-0.298509 0.07482,-0.504291 -0.01907,-0.727447 0.07482,-0.261416 -0.317062,-0.205187 0.168093,-0.466614 -0.07482,-0.634124 -0.186646,-0.317062 -0.279957,-0.186645 0.317634,-0.597603 0.03713,-0.335614 -0.52226,-0.168094 -0.559925,-0.279968 -0.634708,-0.317051 -0.6718,-0.242291 -0.727447,-0.224323 -0.634708,-0.111829 -0.37328,-0.07482 -0.279385,0.112448 -0.429509,-0.0562 -0.242292,-0.279968 -1.287955,0.07482 0.653248,-0.336186 -0.839894,-0.205187 -0.76454,-0.279969 -1.007999,-0.167521 -0.522249,-0.242863 -0.765123,-0.130417 -0.448062,-0.05619 -0.06495,-0.428354 v -0.5808 l 0.198244,-0.633541 0.105437,-0.580217 0.237076,-0.501385 0.14548,-0.541385 0.03937,-0.48806 -0.03937,-0.501386 0.277075,-0.712372 0.01335,-0.356477 -0.07941,-0.237076 0.263727,-0.594125 0.224322,-0.382568 0.264322,-0.527464 0.144908,-0.69963 0.263727,-0.435308 0.409229,-0.421972 0.05272,-0.620215 0.329804,-0.448634 0.395893,-0.224322 0.382567,-0.343152 -0.0922,-0.250973 0.31649,-0.31649 0.593542,-0.501386 0.343152,-0.158245 0.5808,-0.343141 0.633541,-0.184907 0.632968,-0.263738 0.646878,-0.369231 0.329804,-0.132155 0.31649,-0.237648 0.989435,-0.118829 0.343152,-0.250401 0.475307,0.05272 0.237064,-0.501386 0.38314,0.03937 0.659631,-0.197661 0.738461,-0.210985 0.910615,-0.11883 0.48805,0.01279 0.883953,0.0267 0.567463,0.263738 0.475307,0.158245 0.567463,0.132155 0.382556,0.277063 0.474724,-0.01335 0.40923,0.145492 0.672956,0.461398 0.514722,0.330387 0.580217,0.566892 0.184907,0.395893 0.409218,-0.02614 0.263738,0.817864 0.355894,0.712383 0.07941,0.475296 0.224323,0.593553 0.184907,0.805111 -0.0267,0.514139 0.01335,0.765707 0.17157,0.712372 0.02614,0.5808 -0.105437,0.685709 -0.01279,0.633552 0.06551,0.712372 0.01335,0.659631 -0.263738,0.369802 0.158245,0.31649 0.118818,0.699047 -0.03937,0.594125 0.105436,0.277063 -0.17157,0.382568 v 0.672956 l -0.2904,0.606879 0.03937,0.409229 0.04004,0.620215 0.105549,0.56688 -0.132155,0.739045 -0.07941,0.699618 -0.06551,0.51414 -0.07941,0.46197 -0.277064,0.118829 -0.514722,-0.132154 -0.488061,0.06607 -0.34314,0.05272 -0.699046,0.0267 -0.725709,-0.05272 -0.369803,-0.158828 -0.355905,0.06607 -0.14548,0.17157 -0.329816,0.210997 -0.158245,0.43588 0.05272,0.395893 -0.02613,0.474724 0.31649,0.263738 0.237648,0.2904 0.158245,0.475307 0.05272,0.448633 0.382568,0.395321 0.14548,0.277064 0.19766,0.317062 0.488061,0.03937 0.409218,-0.105549 0.343152,-0.237648 0.158234,-0.540812 0.277074,-0.448634 0.395893,-0.17157 0.36922,0.01335 0.369814,0.118818 0.02602,0.395893 0.184908,0.632968 0.250401,0.369815 0.567474,0.342557 0.567463,-0.02613 0.699047,-0.224311 0.34314,-0.158245 0.224323,-0.317062 0.105549,-0.355894 -0.0922,-0.343152 -0.0922,-0.474724 0.303153,-0.06607 0.224311,0.184324 0.264321,0.250984 0.580217,0.0922 h 0.712372 l 0.712954,0.171571 0.51414,0.07941 0.844537,0.118829 0.686293,0.06551 0.435309,0.06607 0.409218,0.277074 0.31649,0.184896 0.567463,-0.132155 0.303725,0.277064 1.028862,0.501397 0.646877,0.04004 0.421972,0.144909 0.303737,-0.03937 0.355894,0.2904 0.409229,0.144908 0.355894,0.02613 -0.03937,0.395893 0.2904,0.409218 0.105549,0.369231 -0.171571,0.06607 -0.395892,-0.118829 -0.632969,0.06607 -0.461971,0.224323 -0.540801,0.250984 -0.2904,0.250401 -0.34314,0.237659 -0.646878,0.02613 -0.435308,0.09276 -0.369231,0.171571 -0.501386,0.144908 -0.540801,-0.11883 -0.07941,-0.250401 -0.567463,-0.05272 -0.11883,-0.26431 -0.263738,-0.342569 -0.528048,-0.317062 -0.685709,-0.07885 -0.382568,0.0922 -0.514711,-0.0922 -0.198243,0.184324 0.07941,0.317062 -0.237648,0.355895 0.07941,0.26432 0.2904,-0.158828 0.250401,0.10611 -0.105549,0.184335 -0.382556,0.118819 0.17157,0.2904 0.237648,0.369231 0.277075,0.48806 0.277063,0.395893 0.474724,0.10611 0.672956,0.355894 0.540812,0.210986 0.699619,0.317062 0.19766,0.224322 0.277063,0.210986 0.277064,0.01335 0.435891,0.395893 0.699046,0.210985 0.554138,0.197661 0.409218,0.198232 0.131583,0.382568 0.435881,0.250401 0.210997,0.488632 0.343141,0.593554 v 0.303152 l 0.158245,0.554721 -0.105549,0.435308 0.05272,0.277064 0.05272,0.527464 v 0.528059 l 0.03937,0.355894 -0.289828,0.11883 v 0.422556 l -0.07941,0.501385 -0.31649,0.263739 h -0.290389 l -0.461981,0.0922 -0.144909,0.317062 -0.317062,0.105437 -0.712371,0.03937 -0.632969,0.06607 -0.303725,0.105549 -0.224323,-0.171581 -0.329815,0.01335 c 0,0 -0.06595,0.07896 -0.105549,0.144908 -0.03959,0.06595 -0.778449,0.05272 -0.778449,0.05272 l -0.224323,0.03937 -0.48806,0.118818 -0.871189,0.07941 -0.369231,0.144909 -0.712382,0.0267 -0.594126,0.01335 -0.870616,-0.06607 -0.620216,-0.05272 -0.488049,-0.0267 -0.46197,-0.263738 -0.593553,-0.0922 -0.343152,-0.250985 -0.594126,-0.382567 -0.672384,-0.303153 -0.343141,-0.184896 -0.580799,-0.448645 -0.382557,-0.329815 -0.382567,-0.250985 -0.317062,-0.316479 -0.778449,-0.448645 -0.593554,-0.46197 -0.421971,-0.435308 -0.171571,-0.277064 0.0922,-0.448645 0.05272,-0.316478 0.01335,-0.567475 0.435308,-0.421971 0.132155,-0.435892 0.382568,-0.461387 0.250401,-0.211569 0.356477,-0.725708 0.40923,-0.831202 0.2904,-0.329815 0.369219,-0.540801 0.369231,-0.329815 0.224323,-0.554127 0.06607,-0.528059 -0.144909,-0.382556 -0.303725,-0.527476 -0.897279,-0.277063 0.145481,-0.21157 -0.330388,-0.329815 -0.19766,-0.250401 L 42.7141,64.500541 42.66138,64.091312 42.278824,63.49777 42.001749,63.075787 41.658608,62.89088 41.315456,62.455572 40.893485,62.23126 l -0.01335,-0.488643 -0.475296,0.330398 0.14548,-0.330398 -0.17157,-0.303142 -0.75237,-0.210997 -0.395893,-0.09276 -0.408646,0.198243 -0.329816,0.395893 -0.303725,0.237065 0.409229,0.5808 0.250402,0.369231 0.07941,0.369814 0.171581,0.46197 0.461387,0.514139 0.422555,0.448634 0.461971,0.5808 0.329815,0.686293 0.329816,0.237075 0.329815,0.488633 0.19766,0.408646 0.05272,0.475296 -0.303154,0.646305 -0.46197,0.620204 -0.395893,0.554138 -0.131572,0.554138 -0.395892,0.2904 -0.382568,0.158234 -0.105437,0.475307 0.263738,0.355894 -0.07941,0.356477 -0.316479,0.131583 -0.198232,0.07941 -0.118246,0.620216 -0.158829,0.593542 0.198244,0.844537 -0.0267,0.356478 0.07941,0.580216 0.356478,0.606879 0.355905,0.237648 0.250974,0.554138 0.355905,0.105549 0.237648,0.382567 0.48806,0.329816 0.461971,0.07941 0.316478,0.263738 0.07941,0.395893 0.606879,0.488632 h 0.356478 l 0.421971,0.395321 0.250985,0.395893 0.408646,0.09276 0.567463,0.118246 0.369231,0.448634 0.237659,0.317062 0.791786,0.184323 0.844526,0.198244 0.97611,0.488049 0.501386,0.250985 0.250984,-0.422555 0.646306,0.210986 0.778449,0.145491 0.409229,-0.184907 0.382556,-0.07941 0.198233,0.132155 0.250412,-0.0922 1.002772,-0.118818 -0.01335,0.184895 0.594137,-0.07941 0.17157,-0.06607 0.791202,-0.19766 0.725709,0.01279 h 0.2904 l 0.210985,-0.184324 0.950031,0.01335 0.541385,0.131583 0.474723,-0.303154 0.554127,0.01335 0.765124,-0.264321 0.395892,-0.224322 0.633552,-0.263727 0.224312,-0.329816 0.527475,-0.09276 0.250985,-0.566892 -0.132155,-0.514722 0.250973,-0.633541 0.132166,-0.355894 0.03937,-0.514722 0.197649,-0.382557 0.250985,-0.818459 -0.105437,-0.382556 -0.26431,-0.263738 0.14548,-0.805111 -0.05272,-0.382567 0.131572,-0.382557 0.06607,-0.355905 0.329804,-0.343141 0.554138,0.02613 0.541384,0.105549 0.421972,0.303725 1.200432,-0.01335 0.646877,0.329815 0.620216,-0.05272 0.580216,-0.23766 0.554138,-0.131571 1.016097,0.01335 0.672968,-0.184896 0.646877,0.03937 0.237065,-0.184323 1.016108,-0.317062 0.883953,0.04004 0.528048,-0.09276 0.791785,-0.17157 0.131572,0.17157 0.356478,-0.540801 0.580227,-0.105437 0.725697,-0.14548 0.250985,-0.171582 0.844538,-0.277063 0.395893,0.06607 0.277063,0.250985 0.184324,0.963356 -0.0922,0.382567 -0.02613,0.804528 0.01279,0.672956 v 0.356478 l -0.118247,0.791785 0.01279,0.329816 0.01335,0.421983 0.04004,0.92394 v 0.355894 l 0.0922,1.148264 -0.06607,0.765123 -0.06607,0.659631 0.0922,0.567463 v 0.686293 l -0.07885,0.68571 0.03937,0.5808 -0.03937,0.910032 0.131583,0.317062 0.2904,-0.07942 0.07941,0.210998 -0.184895,0.17157 -0.197661,0.158234 v 0.330398 l 0.11883,0.619632 0.03937,0.633541 0.03937,0.475307 -0.14492,0.632969 0.03937,0.514711 -0.05272,0.831201 -0.07941,0.765124 0.04004,0.528059 -0.132155,0.329804 0.144908,0.356489 0.01335,0.514128 0.0267,0.633552 -0.01335,0.448633 -0.0267,0.448645 0.09276,0.277064 0.144908,0.158244 0.01335,0.422555 -0.277074,0.197661 0.0922,0.356477 0.03937,0.85728 -0.01279,0.2904 -0.04004,0.620215 -0.03937,0.474724 0.05272,0.528048 0.105549,0.567463 0.277063,0.501386 0.105549,0.19766 0.435892,0.11883 0.435308,-0.06607 0.303153,0.158234 0.343141,0.383139 0.07941,0.31649 0.765124,-0.03937 0.09276,-0.356477 0.408646,-0.343152 0.224323,-0.277063 v -0.488042 l -0.144928,-0.210985 0.02602,-0.712954 -0.184324,-0.303155 0.184324,-0.290387 0.422555,-0.620216 -0.198233,-0.514722 -0.593553,-0.31648 -0.356477,-0.197659 -0.395893,-0.672957 -0.158234,-0.329815 -0.05272,-0.501386 0.05272,-0.646877 0.237648,-0.448645 -0.144908,-0.474724 0.329815,-0.34314 0.289817,-0.620216 -0.01279,-0.356477 -0.277064,-0.369231 -0.04004,-0.699046 0.04004,-0.475296 0.210986,0.05272 -0.250984,-0.46197 -0.05272,-0.765124 0.06607,-0.501385 -0.0267,-0.831202 -0.05272,-0.46197 0.0267,-0.738461 v -0.475296 l -0.01335,-0.593554 -0.05272,-0.501385 -0.03937,-0.554138 0.07885,-1.055524 0.04004,-0.528048 -0.04004,-0.65963 -0.263737,-0.277064 0.132155,-0.356477 0.224322,-0.593553 -0.237648,-0.303726 0.06607,-0.593553 0.02602,-0.620215 -0.210986,-0.237648 0.11883,-0.144909 0.03937,-0.580799 -0.01335,-0.97611 0.01335,-0.633541 0.0922,-0.329815 0.01335,-0.514722 -0.158245,-0.408647 0.03937,-0.369803 0.198244,-0.316478 -0.224323,-0.778449 0.01335,-0.369231 0.05272,-0.672968 -0.01335,-0.184895 0.765123,-0.395893 0.461971,-0.224323 0.646305,-0.19766 0.409218,-0.448634 1.029445,-0.805122 0.474724,-0.633541 0.14548,-0.19766 0.461398,-0.474724 0.2904,-0.38314 0.2904,-0.36923 0.36922,-0.567464 0.0267,-0.355905 0.07885,-0.660203 0.184896,-0.369231 v -0.844538 l 0.144908,-0.277064 -0.210986,-0.0922 -0.17157,-0.2904 0.05272,-0.448634 -0.131583,-0.316489 -0.317062,-0.567464 -0.566891,-0.554125 -0.475296,-0.382568 -0.554137,-0.46197 -0.210986,-0.184908 -0.593554,-0.290399 -0.369802,-0.435308 -0.382568,-0.06607 -0.46197,-0.2504 -0.461387,-0.303725 -0.317062,-0.237076 -0.06607,-0.09276 0.132155,-0.224323 0.633541,-0.250401 0.343152,-0.250984 0.02602,-0.250402 -0.03937,-0.145491 0.488061,-0.303154 0.580788,0.132155 0.118247,0.05272 0.541384,-0.501386 0.316479,-0.26431 0.171581,-0.329815 0.2904,-0.355894 -0.05272,-0.448645 -0.11883,-0.224323 -0.237647,-0.158817 0.105436,-0.19766 0.316479,-0.250401 0.461982,-0.01335 0.303725,-0.422555 0.144908,-0.329816 0.132155,-0.606878 0.03937,-0.316491 -0.105437,-0.277064 0.05272,-0.317062 -0.11883,-0.342568 0.448645,-0.580789 0.263727,-0.540812 0.04004,-0.461971 c 0,0 0.355894,-0.34295 0.355894,-0.435308 0,-0.09231 0.09276,-0.369803 0.09276,-0.369803 l 0.144909,-0.435308 0.46197,-0.580217 0.369231,-0.883952 -0.01335,-0.211569 -0.07885,-0.527465 0.07885,-0.567474 0.06607,-0.421972 0.448645,-0.541384 0.0922,-0.303154 0.06607,-0.382556 -0.03937,-0.303725 0.263727,-0.237659 -0.06607,-0.343141 -0.105549,-0.369231 0.145492,-0.329815 0.19766,-0.382557 -0.05272,-0.409229 0.198232,-0.435308 -0.132155,-0.237648 -0.329815,-0.03937 -0.303725,-0.2904 -0.765124,-0.19766 -0.528048,-0.0267 -0.19766,0.316479 -0.382556,0.475307 0.237647,0.19766 -0.198232,0.5808 -0.263738,0.778449 -0.118829,0.369231 -0.250402,0.818448 0.02602,0.527476 -0.144908,0.277063 c 0,0 -0.158795,0.07941 -0.211569,0.250984 -0.05283,0.171526 -0.19765,0.765124 -0.19765,0.765124 l -0.277074,0.75237 -0.0922,0.593542 -0.158828,0.527476 -0.36922,0.594126 -0.329815,0.277074 -0.250413,0.501386 -0.132155,0.910604 -0.0267,0.514139 -0.19766,0.369814 -0.158234,0.844527 -0.145491,0.48806 -0.158245,0.593553 -0.224312,0.791786 -0.210997,0.409218 -0.158233,0.501386 -0.395893,0.0922 -0.144909,-0.263726 0.171571,-0.264322 -0.145492,-0.277063 -0.382556,-0.448645 -0.19766,-0.184324 v -0.250984 l 0.0922,0.05272 0.118829,-0.448633 -0.224322,-0.250413 -0.105549,-0.422555 0.158245,-0.184324 0.158245,-0.488632 -0.06607,-0.474724 -0.118818,-0.448645 -0.303153,-0.567463 0.355894,-0.488049 0.0267,-0.435308 -0.0267,-0.620216 -0.02602,-0.448645 -0.132155,-0.382556 0.04004,-0.343152 0.277074,-0.46197 0.02613,-0.897279 -0.01335,-0.540801 -0.07885,-0.277063 0.36922,-0.528048 0.19766,-0.514139 0.145492,-0.329816 -0.250985,-0.672967 0.06607,-0.739034 0.0267,-0.448645 -0.05328,-0.540801 -0.131583,-0.5808 0.105549,-0.421971 -0.01335,-0.541385 0.06607,-0.395893 -0.263737,-0.448633 -0.2904,-0.131583 -0.65962,-0.250985 -0.672967,-0.03937 -0.435881,0.01335 -0.408646,0.567464 V 39.3254 l 0.06607,0.63354 0.02602,0.382557 0.01335,0.633552 -0.01335,0.435308 -0.06607,0.488049 0.04004,0.765707 -0.118829,0.382556 0.05272,0.514139 -0.01335,0.277647 -0.144908,0.765124 -0.01335,0.514722 -0.0922,0.68571 -0.211569,0.488632 -0.0922,0.619632 -0.07941,0.171582 0.07941,0.34314 0.03937,0.356478 -0.118246,0.514722 -0.224311,0.329816 -0.2904,-0.09276 v -0.237092 l -0.210986,-0.646878 -0.211569,-0.17157 -0.474724,-0.593553 -0.224322,-0.303726 -0.303737,-0.408646 -0.395893,-0.132165 -0.184323,-0.316479 0.03937,-0.409219 -0.2904,-0.184907 -0.355894,-0.197661 -0.184907,-0.395893 -0.17157,-0.421971 -0.659631,-0.475307 -0.369803,-0.2504 -0.448645,-0.369816 -0.39531,-0.184323 -0.554137,-0.198233 -0.448634,0.0267 -0.395893,0.06551 -0.158828,0.264311 -0.158234,0.343152 0.382556,0.435309 -0.329815,0.197648 0.132155,0.263738 0.224322,0.607462 0.329816,0.685709 0.435308,0.422555 0.620215,0.765124 0.303726,0.237659 0.514139,0.289817 0.01335,0.475308 0.34314,0.42197 0.198244,0.395894 0.435308,0.395893 0.19765,0.05272 0.132166,0.237648 0.01335,0.356478 c 0,0 0.329961,0.329781 0.343152,0.382567 0.01323,0.05272 0.289816,0.395893 0.289816,0.395893 l 0.303726,0.303153 0.48806,0.791786 0.317062,0.409218 0.435308,0.329816 0.224323,0.501385 0.277063,0.527476 0.343141,0.303726 0.382567,0.831201 v 0.210986 l 0.06551,0.263737 0.211569,0.317062 -0.132155,0.421983 -0.105549,0.540802 0.02613,0.422554 -0.316479,0.540802 -0.369231,0.09276 -0.844538,0.06551 -0.46197,-0.158245 -0.963356,-0.03937 -0.435308,-0.132155 -0.435309,-0.171571 -0.409218,0.211569 -0.751798,-0.158828 -0.277063,-0.03937 -0.184907,0.303737 -0.395893,-0.06607 -0.712372,-0.171582 -0.620215,0.01335 -0.593553,0.05272 -0.554127,0.07885 -0.5808,-0.05272 -0.686293,-0.05272 -0.646294,0.118829 -0.540801,0.356478 -0.69963,0.03937 -0.844526,0.03937 -0.263738,0.224322 -0.791786,0.132155 -0.461398,0.06607 -0.567463,0.05272 -0.765124,-0.06607 c 0,0 -0.699428,0.03948 -0.791786,0.105549 -0.09231,0.06595 -0.594125,0.224322 -0.594125,0.224322 l -0.474724,0.11883 -0.540801,0.03937 -0.646877,0.382557 -0.554138,0.09276 -0.65962,0.250401 -0.501397,0.17157 -0.488049,0.0922 -0.250984,0.250985 -0.05272,0.395893 0.198244,0.46197 0.03937,0.31649 -0.594136,0.184907 -0.39531,-0.05272 -0.92394,-0.10611 -0.329816,-0.105437 -0.791785,-0.11883 -0.395893,-0.118246 -0.554138,-0.10611 -0.699046,-0.144909 -0.805111,-0.11883 -0.659631,-0.131571 -0.646294,-0.10611 -0.171571,-0.554138 0.02602,-0.435308 c 0,0 0.02647,-0.527442 0.01335,-0.580217 -0.01324,-0.05283 -0.184907,-0.435891 -0.184907,-0.435891 l -0.237076,-0.435308 -0.04004,-0.36923 0.118819,-0.343142 0.224322,-0.448645 -0.105437,-0.606879 -0.118829,-0.475307 0.17157,-0.501385 -0.131572,-0.488049 -0.106109,-0.2904 0.224322,-0.382567 -0.210986,-0.474724 0.105549,-0.329816 0.07941,-0.528047 0.07942,-0.712373 -0.237648,-0.606878 -0.06607,-0.739044 0.144909,-0.197649 0.211569,-0.844538 -0.11883,-0.501386 v -0.409229 l 0.184324,-0.263728 -0.355894,-0.422566 0.158234,-0.620204 -0.07941,-0.725137 -0.118247,-0.303725 0.144909,-0.46197 -0.303737,-0.488061 v -0.567463 l -0.0922,-0.409229 -0.448645,-0.421972 0.46197,-0.105549 -0.554126,-0.421972 -0.198244,-0.514722 -0.699035,-0.739044 -0.501386,-0.699035 -0.31649,-0.501386 -0.46197,-0.224322 -0.422555,-0.395893 -0.540801,-0.488633 -0.554138,-0.329816 -0.686293,-0.408645 -0.672956,-0.422556 -0.105549,0.132155 -1.14768,-0.699629 c 0,0 -0.619991,-0.09231 -0.765124,-0.105437 -0.145143,-0.01324 -1.082185,-0.02614 -1.082185,-0.02614 L 39.177606,37.35994 Z m -20.850167,18.800565 0.634124,0.09332 h 0.448062 l 1.100738,0.279385 0.149541,-0.260844 0.6718,0.186645 0.559354,-0.0562 0.616155,0.223739 1.082186,0.186646 0.820769,0.03769 0.914665,0.223739 0.186645,0.428937 0.391833,0.597602 0.447478,0.09332 0.317645,-0.20577 0.09332,-0.317062 0.559354,-0.373291 0.746571,-0.223739 0.559926,0.223739 c 0,0 -0.01873,0.299014 -0.186635,0.410968 -0.167947,0.111943 0.746572,0.148969 0.746572,0.148969 l 0.652676,-0.09332 0.541373,0.149541 0.82077,0.279968 0.578478,0.317062 0.72803,0.03713 0.708895,0.298509 0.653248,0.03769 0.354739,0.317062 0.298521,0.410385 0.03713,0.522832 0.05619,0.578478 0.260833,0.410385 -0.317062,0.708906 v 0.541373 l -0.223739,0.671801 0.07414,0.839322 0.03769,0.746571 -0.11183,0.671801 0.223739,0.447478 -0.242291,0.914676 -0.149541,0.485155 0.336186,0.708895 -0.149541,0.149552 -0.279968,0.615571 -0.279968,0.466615 0.0562,0.410374 -0.0562,0.52226 v 0.671801 l 0.205198,0.354739 -0.09332,0.317062 0.09332,0.391832 -0.111831,0.690353 -0.335614,0.42951 0.167521,0.634124 -0.09332,0.839894 -0.16751,0.653248 -0.186645,0.951769 -0.111831,0.410385 0.03713,0.503708 -0.03713,0.89554 -0.01851,0.728019 -0.279969,0.59703 -0.05619,0.634124 0.336197,0.504291 -0.354738,0.242281 -0.0562,0.653259 0.317645,0.410385 -0.224322,0.485155 -0.130417,0.839894 0.09332,0.16751 0.223739,0.765124 0.111831,0.597614 -0.279385,0.839311 0.09332,0.6718 v 0.988863 l 0.111831,0.616155 0.298509,1.287384 0.597031,0.354739 0.335603,0.820758 -0.130416,0.335614 0.261416,0.970311 0.279968,0.746582 0.07414,0.89554 -0.130427,0.50428 -0.597019,0.298521 c 0,0 -0.895731,0.07414 -0.970322,0.07414 -0.0747,0 -1.194431,-0.01817 -1.325049,-0.07414 -0.130619,-0.05597 -0.82077,-0.224322 -0.82077,-0.224322 h -1.194633 l -1.156956,-0.130417 -0.354156,0.29851 -0.559937,0.186645 -0.14954,-0.578478 -1.34303,0.07482 H 24.45361 l -1.455466,-0.261417 -1.212602,-0.130417 -0.839905,0.223739 -0.746571,-0.186645 -0.559926,-0.130416 -0.652676,0.130416 -0.448062,-0.130416 -0.09332,-0.578479 -0.279957,-0.709477 -0.317062,-0.652677 -0.52226,-0.186645 -0.0562,-0.336187 -0.29852,-0.186644 -0.186646,-0.652677 0.11183,-0.336186 -0.223739,-0.765124 -0.224322,-0.503708 -0.391833,-0.466602 v -0.52226 -0.783665 l -0.223739,-0.448062 -0.261416,-0.559354 -0.279968,-0.466602 0.354738,-0.690354 -0.01851,-0.336186 0.03713,-1.268831 -0.148969,-0.485156 -0.07482,-0.503707 0.242292,-0.634708 -0.01851,-0.89554 -0.186646,-0.634124 -0.11183,-0.783664 -0.05564,-0.373293 0.09332,-0.559925 0.09332,-0.783676 v -0.485156 l 0.186646,-0.708894 -0.20577,-0.336198 0.14954,-0.391832 0.130417,-0.97031 -0.16751,-1.100739 0.298509,-0.168093 -0.354738,-1.287372 -0.205187,-0.653249 0.485155,-0.22375 0.05564,-0.783665 -0.279385,-0.37329 0.01851,-0.690343 0.130416,-0.466614 0.22374,-0.746572 0.186645,-0.335614 -0.205198,-0.783665 -0.09332,-0.354739 0.22374,-0.988863 0.09332,-0.466614 -0.130416,-0.615571 -0.168093,-0.448062 0.559926,-0.0562 -0.168094,-0.802217 v -0.746569 l 0.131,-0.410385 -0.09332,-0.671801 -0.242864,-0.671801 0.261417,-0.29852 0.03713,-0.727447 -0.09332,-0.466603 -0.01851,-0.466614 0.448051,-0.260833 -0.0562,-0.299093 0.317646,-0.708894 0.05563,-0.559937 z m 55.683523,3.19496 1.53083,0.210986 0.870617,0.369231 0.448634,0.07941 0.105549,0.554138 -0.158234,1.002772 -0.07941,0.712383 -0.02602,0.606879 -0.05272,0.818447 0.02613,0.765124 0.105549,0.817865 -0.07885,0.976691 -0.264321,0.659632 0.237659,0.659631 -0.31649,0.316479 -0.686293,0.448633 -0.34314,0.369814 -0.369231,0.07885 -1.161017,0.237648 -1.267092,0.237659 -0.817865,0.158233 -1.293171,0.210997 -0.659631,0.105549 -0.263738,-0.421982 -0.0267,0.65963 -0.316478,0.07941 -0.633541,0.07885 -1.134355,0.132155 -1.108847,0.131583 -1.345341,0.0267 -0.844537,-0.184907 -0.871189,-0.02602 -1.239847,-0.158245 -0.712955,-0.343141 -0.712383,-0.184907 -0.844527,-0.343152 -0.501386,-0.343141 0.606879,-0.184324 0.950031,-0.211569 0.580789,-0.474724 1.055523,-0.184907 0.343152,-0.289816 0.633541,-0.8712 0.237076,-0.554127 0.0267,-0.791786 -0.132166,-0.580216 -0.421971,-0.448645 -0.606879,-0.501386 -0.422555,-0.184907 -0.791786,-0.501386 -0.527475,-0.448645 -0.554138,-0.05272 -0.633541,-0.184896 -0.395893,-0.289828 0.05272,-0.501385 0.686293,-0.317063 0.870617,-0.105548 1.055512,-0.474724 0.791786,-0.0267 1.029445,-0.02602 0.659619,-0.34314 1.187679,0.05272 h 0.554138 l 1.028861,-0.2904 0.871189,-0.2904 0.844538,-0.158245 1.081602,-0.105549 1.240431,0.105549 1.293171,0.105437 0.923358,-0.210986 z m 5.515266,1.794557 0.395893,0.07885 0.501385,0.210997 0.897279,0.765695 0.554138,0.474724 0.210986,1.029435 -0.132155,0.791785 -0.395893,0.632969 -0.765124,0.791786 L 79.460654,66.414 78.668869,66.968137 78.35239,66.624985 78.194145,65.8332 78.537286,65.384566 v -0.950031 l -0.105549,-0.791785 0.210986,-0.659631 v -0.817865 l -0.07941,-0.606878 -0.07885,-0.395893 z" />
        <path
           id="path5-8"
           style="fill:#ffffff;fill-opacity:1;stroke:none;stroke-width:1.00012;stroke-linecap:butt;stroke-linejoin:miter;stroke-dasharray:none;stroke-opacity:1"
           d="m 22.143713,62.376221 0.131572,0.05272 -0.765124,0.633542 -0.739033,0.527476 -0.659631,0.369802 -0.02602,0.817875 -0.132166,0.765124 -0.501386,0.712372 -0.158234,0.739045 0.02613,0.739034 0.10611,1.082186 -0.2904,0.897278 0.395893,1.055524 0.68571,1.31925 0.395892,0.686293 0.739045,0.501386 0.421972,0.527476 0.950031,0.237647 0.897278,0.316479 1.055524,0.132166 1.161589,-0.31649 0.817875,-0.448633 0.765124,-0.739045 1.082174,-0.501386 0.343152,-0.448634 0.870617,-0.739045 0.554138,-0.950019 0.448633,-0.976109 -0.34314,-1.609662 -0.343152,-0.686293 -0.659631,-0.712371 -0.290389,-0.633541 -0.870616,-0.844538 -1.319262,-0.369231 -0.528048,-0.317062 -0.606878,-0.07885 -0.791786,0.290401 -1.055524,-0.211569 -0.158245,-0.289817 -0.395893,-0.422555 -0.07941,-0.554138 -0.73845,-0.474723 z m 0.131572,3.087728 0.2904,0.02602 0.0267,0.475308 0.263737,0.395893 0.817865,0.289817 0.343152,-0.210987 0.659631,0.290401 0.317062,-0.501386 0.554126,-0.105549 0.659631,-0.0267 0.580217,0.343141 0.5808,0.844538 0.528048,0.659631 -0.158818,1.055512 -0.316478,0.739045 -0.2904,0.739034 -1.002783,0.527475 -0.474724,0.422555 -0.791785,0.395893 -0.474724,0.237076 -0.818448,-0.02613 -0.606879,-0.475307 -0.739033,-0.395893 -0.501386,-0.65963 0.105549,-0.765124 -0.342569,-0.421972 -0.158817,-0.712955 0.317062,-0.421971 -0.05272,-0.870617 0.158245,-0.633552 0.158234,-1.029433 z" />
        <path
           style="fill:#ffffff;fill-opacity:1;stroke:none;stroke-width:1.00012;stroke-linecap:butt;stroke-linejoin:miter;stroke-dasharray:none;stroke-opacity:1"
           d="m 22.908893,78.816638 0.738888,0.316669 0.554171,0.290289 -0.211109,0.712506 -0.42223,0.527779 0.131954,0.738888 0.237502,0.580564 -0.131942,0.554171 0.131942,0.31667 -0.290288,0.501385 0.290288,0.448611 0.501385,0.369455 0.290288,0.659722 0.633339,0.527789 0.395826,0.131941 0.527789,-0.211119 0.475005,-0.422219 0.448611,-0.475004 0.448611,-0.448611 0.237502,-0.448622 -0.316669,-0.475005 0.105549,-0.686113 0.105549,-0.686114 -0.290277,-0.712506 -0.369444,-0.712495 -0.395837,-0.606958 -0.580564,-0.369444 -0.844448,-0.263895 -0.527779,0.131954 -0.527778,-0.448612 -0.395837,-0.263895 -0.316669,-0.395836 0.211109,-0.395837 0.738899,-0.343062 0.923615,-0.105549 0.290277,-0.184728 0.765281,0.448611 0.633338,0.263895 0.712507,0.475004 0.870841,0.659721 0.369443,0.21112 0.395837,0.580553 0.580565,0.633339 0.211109,0.897234 -0.158335,0.686113 0.237502,0.606946 0.211109,0.501397 0.158335,0.950009 v 0.55416 l -0.554171,0.791673 -0.343052,0.738899 -0.501397,0.501386 -0.527778,0.42223 h -0.395837 l -0.131942,0.263884 -0.52779,0.448622 -0.475004,0.290277 -1.002783,0.316669 -0.448611,0.184728 -0.97639,-0.31667 -0.738899,-0.290288 -0.76528,-0.475004 -0.42223,-0.343051 -0.290277,-0.712506 -0.316669,-0.369444 -0.580553,-0.738899 -0.263895,-0.501386 0.131942,-0.475004 -0.369444,-0.606957 -0.02636,-0.923616 0.237502,-0.580553 -0.05283,-0.527789 -0.05283,-0.606946 0.237503,-0.606946 v -0.501386 l 0.105549,-0.395837 0.263883,-0.475004 0.580565,-0.105549 z"
           id="path7-0" />
        <path
           id="path9-8"
           style="fill:#ffffff;fill-opacity:1;stroke:none;stroke-width:1.00012;stroke-linecap:butt;stroke-linejoin:miter;stroke-dasharray:none;stroke-opacity:1"
           d="m 107.28956,40.062243 -1.0816,0.07941 -0.81845,0.237648 -1.18709,0.07885 h -0.66022 l -0.26373,0.448645 -0.026,1.055524 -0.1849,0.871189 0.0794,1.134354 -0.10611,0.607462 -0.36922,0.950031 -0.2904,0.949447 -0.2904,0.791786 -0.18432,0.976681 0.13158,0.659631 -0.26374,1.055524 -0.15824,0.923367 -0.026,1.056096 -0.0267,0.896695 0.0267,0.554138 -0.26432,0.211569 -0.42196,-0.501385 -0.52805,-0.8712 -0.527468,-0.606879 -0.158237,-0.712372 -0.36981,-0.686292 -0.501387,-0.554138 -0.527467,-0.870617 -0.317057,-0.765123 -0.632957,-0.976693 -0.791788,-0.263727 -0.659631,0.2904 -0.132155,0.68571 -0.343152,0.580799 0.184907,0.554127 0.184908,0.633552 0.289816,0.817865 0.237648,0.448644 0.739045,0.501386 0.633539,0.97611 0.0789,0.660203 0.606877,0.237075 -0.15823,0.448634 0.739027,0.448645 0.0794,0.422555 0.606877,0.950031 0.395895,0.896695 0.47472,1.134938 0.26374,0.448633 -0.18433,0.369231 -0.686288,0.10611 -0.817864,0.289817 -1.425324,0.501386 -0.765122,0.184907 -0.63354,0.606878 -0.210986,0.475307 -0.2904,0.421983 -0.474724,1.134927 -0.475307,1.002771 -0.501386,1.187107 -0.158245,1.029433 -0.02613,0.791786 0.263737,0.791786 -0.237659,0.791202 -0.02613,1.1616 0.158234,0.791203 0.184335,0.501385 0.07941,0.8712 0.263738,0.685721 0.633541,1.003355 0.184907,0.527464 0.527476,0.369231 1.055514,1.056107 0.791787,0.685709 0.817864,0.237648 0.554137,0.554138 0.0533,0.659631 -0.317057,0.65962 -0.23708,0.475306 -0.264307,0.897279 -0.659627,0.527476 -0.2904,0.976681 -0.237067,0.421983 -0.26431,1.082186 -0.3959,0.68571 -0.738462,0.739033 -0.158245,0.923952 0.237076,0.65962 -0.02602,0.501397 0.554127,0.659619 0.606894,0.184907 0.712367,-0.26431 0.210987,-0.870616 0.580797,-0.60689 0.39589,-0.739034 0.369227,-0.580217 0.264307,-0.765706 0.395318,-0.474724 0.15882,-0.65962 0.42197,-0.264321 0.42198,-0.07885 0.0794,0.501386 -0.0267,0.31649 0.0527,0.580788 -0.15825,0.580217 0.13216,0.844538 0.10554,0.501385 -0.0534,0.5808 -0.0789,0.606879 -0.10555,0.580217 0.2904,0.448645 -0.0794,0.5808 -0.21099,0.63354 0.18433,0.421972 -0.10555,0.686293 0.13215,0.632968 0.0527,0.8712 0.44865,0.765124 0.44863,0.554127 0.5808,0.184907 0.65962,0.237647 0.50139,0.474724 0.26373,0.105437 0.26373,-0.527465 0.44865,-0.317062 0.39589,-0.527475 -0.15825,-0.791786 -0.36923,-0.686293 -0.31706,-0.976109 -0.52746,-0.2904 -0.34316,-0.791786 -0.0267,-1.02885 -0.026,-1.240431 -0.10555,-0.950031 -0.13217,-0.554126 0.2904,-0.263738 0.0267,-0.739034 -0.10611,-0.475307 0.0267,-1.292599 -0.21098,-1.53082 0.0527,-1.24043 0.23765,-0.65962 0.36923,-0.369231 0.73905,-0.5808 0.65963,-0.2904 0.29039,-0.897278 0.44864,-1.002772 0.10544,-0.501386 -0.23765,-0.554137 -0.71238,-0.343141 -0.63354,-0.263738 -0.50139,0.0267 -0.50138,0.131571 -0.31648,-0.712371 -0.13217,-1.029434 0.0267,-0.474735 0.42198,-0.897278 -0.18491,-1.530248 v -1.293171 l -0.0527,-1.002772 0.10544,-0.791786 V 63.17939 l -0.15824,-0.475307 0.26373,-0.71237 0.34315,-0.132155 -0.13158,-0.342569 0.31648,-0.501386 -0.15824,-0.660214 -0.4753,-1.081602 -0.23707,-1.372586 0.15824,-1.108264 0.13157,-1.372003 0.18491,-1.530819 V 52.5181 51.383174 l 0.15824,-1.028861 0.13216,-1.161017 0.23765,-0.475296 0.23707,-0.290399 -0.10555,-0.791214 -0.0789,-1.161588 0.28982,-0.554138 0.21157,-1.002773 0.0789,-1.02886 0.31706,-0.475296 0.34257,-0.07885 0.92394,-0.65963 0.36923,-0.55471 0.6863,0.343141 1.50415,0.158245 1.31926,0.2904 0.81845,0.184896 1.31925,0.343152 0.65963,0.2904 1.47808,0.210986 0.95003,0.316478 0.63296,-0.263738 0.55414,0.421983 0.36981,0.5808 0.0527,0.95002 0.13158,1.108275 0.2904,0.527465 -0.0267,0.5808 -0.0261,0.765123 0.15825,0.950031 -0.10555,0.95002 -0.13217,1.134937 0.13217,1.108265 -0.15825,0.633541 0.10544,1.266509 -0.21157,0.897279 -0.10555,0.791785 -0.13158,1.187107 v 1.345912 l 0.34315,1.055524 -0.26432,1.267093 -0.18432,0.685709 0.0527,1.134938 0.0789,0.606879 -0.23708,0.791785 -0.10544,1.134927 0.0261,0.870616 -0.0789,0.950031 0.10555,0.897279 -0.21157,1.028861 -0.36923,1.082186 0.26373,0.765124 0.21157,0.95003 -0.0794,1.029434 -0.10555,0.791786 0.21099,1.002771 0.0527,0.97611 -0.21099,1.029445 -0.13216,0.976108 0.0267,0.870617 0.36923,0.607462 0.15882,0.474723 -0.21156,1.187679 -0.0261,0.870616 0.15825,0.897279 0.10543,1.90005 v 1.161017 l 0.44864,1.082185 -0.21099,0.870617 0.15825,0.739045 0.23765,0.791786 0.0789,0.817864 0.21157,0.817865 0.71237,0.871199 0.76512,0.421983 h 0.87062 l 0.52806,0.343141 0.65962,0.05272 0.65963,-0.527476 -0.0261,-0.712955 0.23707,-0.659631 -0.47473,-0.580216 -0.52804,-0.606879 -0.73846,-0.369814 -0.2904,-0.95002 -0.34315,-1.134354 -0.26373,-0.791786 0.15824,-0.976693 -0.0794,-0.580216 -0.26374,-1.451417 0.0794,-1.055523 -0.13215,-1.504158 -0.10555,-0.976692 0.18491,-0.897279 -0.21157,-1.134355 -0.23708,-0.897278 0.21099,-0.871189 -0.0527,-2.374785 0.0267,-0.976693 -0.1849,-2.348695 -0.0267,-1.081602 0.13216,-0.686293 -0.2904,-0.897279 0.15824,-1.028861 0.0267,-0.923941 0.21098,-0.131583 0.0794,-0.580789 -0.0527,-0.712382 0.15824,-0.818448 -0.10554,-1.055524 0.13157,-0.791202 0.26432,-1.293172 v -0.8712 l 0.026,-1.002771 -0.026,-0.870617 0.13157,-0.844537 -0.1849,-0.897279 -0.31649,-0.527465 0.3959,-0.317062 0.15824,-1.34534 0.18491,-0.818448 -0.18491,-1.372002 -0.15824,-0.5808 0.21099,-1.055524 0.0527,-1.161016 0.0794,-1.31925 -0.21099,-1.267093 -0.0267,-0.897279 -0.55413,-0.923368 0.15823,-0.712372 -0.10543,-1.055524 -0.97611,-0.739033 -0.66021,-0.263738 -1.16101,-0.264321 -0.58022,-0.316479 -1.29317,-0.02602 -0.5808,-0.2904 -1.50417,-0.105549 -0.76511,-0.26431 -0.95003,0.10611 h -0.65963 l -1.21376,-0.317062 -0.97669,-0.237659 z m -6.59683,20.662938 h 0.31647 l -0.0789,1.715154 0.15825,0.8712 -0.10555,1.187096 -0.0527,1.187679 v 1.108264 1.741817 l -0.13216,2.005543 0.0267,1.081614 -0.0527,1.21434 v 0.316479 l -0.47529,-0.07941 -0.659638,-0.342569 -0.897267,-0.475307 -0.633534,-0.712371 -0.712387,-0.791786 -0.369228,-0.897279 -0.475296,-0.89729 -0.210997,-1.055512 -0.05272,-1.134938 0.05272,-1.161016 0.5808,-0.897279 0.237071,-1.134354 0.15882,-0.976682 0.527477,-0.870617 0.976684,-0.501385 1.134334,-0.448645 z" />
        <path
           style="fill:#ffffff;fill-opacity:1;stroke:none;stroke-width:1.00012;stroke-linecap:butt;stroke-linejoin:miter;stroke-dasharray:none;stroke-opacity:1"
           d="m 104.89629,92.814196 -1.00279,-0.158335 -1.00278,0.131942 -0.58055,0.395837 0.10555,0.633339 0.39583,0.76528 0.65974,0.554172 1.45139,0.369444 1.60973,-0.05272 1.13473,0.131942 0.60695,0.369455 0.95001,-0.105549 0.97639,0.105549 1.31946,0.131942 0.79166,-0.211109 1.26668,0.07919 1.26668,0.211109 1.34584,-0.263895 1.05556,0.02636 1.26669,0.158335 1.45137,-0.105549 0.92363,-0.05283 0.95,-0.07919 1.29308,0.131953 0.76527,0.158323 0.2903,-0.395825 0.65969,-0.606958 0.0792,-0.686113 -0.63333,-0.580553 -0.84445,-0.501397 -1.13472,-0.184728 -1.02918,0.158346 -0.68612,-0.105549 -1.55694,-0.131953 -0.97641,-0.05272 -1.425,-0.211109 -0.95001,-0.05272 -1.47779,0.158324 -1.60973,-0.05283 -0.92362,-0.105549 -1.55696,-0.158335 -0.79166,0.131942 -1.55695,0.290277 -0.81807,0.02636 -0.60696,-0.158323 z"
           id="path10-0"
           sodipodi:nodetypes="cccccccccccccccccccccccccccccccccccccccccccccc" />
      </g>
    </g>
  </g>
</svg>
